{
  "accessors": [
    {
      "bufferView": 2,
      "componentType": 5126,
      "count": 18903,
      "max": [
        7.399980068206787,
        18.36174964904785,
        6.440532207489014
      ],
      "min": [
        -8.558391571044922,
        -0.12212227284908295,
        -7.525225639343262
      ],
      "type": "VEC3"
    },
    {
      "bufferView": 2,
      "byteOffset": 226836,
      "componentType": 5126,
      "count": 18903,
      "max": [
        0.9997209310531616,
        1.0,
        0.9999306201934814
      ],
      "min": [
        -0.9997479915618896,
        -0.9996563196182251,
        -0.9999123811721802
      ],
      "type": "VEC3"
    },
    {
      "bufferView": 1,
      "componentType": 5126,
      "count": 18903,
      "max": [
        0.9940172433853149,
        0.9980080127716064
      ],
      "min": [
        0.00198406632989645,
        0.0019920319318771362
      ],
      "type": "VEC2"
    },
    {
      "bufferView": 0,
      "componentType": 5125,
      "count": 19530,
      "type": "SCALAR"
    }
  ],
  "asset": {
    "extras": {
      "author": "Sandra_s (https://sketchfab.com/Sandra_sm)",
      "license": "CC-BY-4.0 (http://creativecommons.org/licenses/by/4.0/)",
      "source": "https://sketchfab.com/3d-models/coral-c26e47859f0945d69a4e2944ee80b995",
      "title": "Coral"
    },
    "generator": "Sketchfab-12.67.0",
    "version": "2.0"
  },
  "bufferViews": [
    {
      "buffer": 0,
      "byteLength": 78120,
      "name": "floatBufferViews",
      "target": 34963
    },
    {
      "buffer": 0,
      "byteLength": 151224,
      "byteOffset": 78120,
      "byteStride": 8,
      "name": "floatBufferViews",
      "target": 34962
    },
    {
      "buffer": 0,
      "byteLength": 453672,
      "byteOffset": 229344,
      "byteStride": 12,
      "name": "floatBufferViews",
      "target": 34962
    }
  ],
  "buffers": [
    {
      "byteLength": 683016,
      "uri": "scene.bin"
    }
  ],
  "materials": [
    {
      "doubleSided": true,
      "name": "Redd",
      "pbrMetallicRoughness": {
        "baseColorFactor": [
          0.5588464244084059,
          0.023012407224241232,
          0.023012407224241232,
          1.0
        ],
        "metallicFactor": 0.23806818181818182,
        "roughnessFactor": 0.9107954545454545
      }
    }
  ],
  "meshes": [
    {
      "name": "pCylinder23_Redd_0",
      "primitives": [
        {
          "attributes": {
            "NORMAL": 1,
            "POSITION": 0,
            "TEXCOORD_0": 2
          },
          "indices": 3,
          "material": 0,
          "mode": 4
        }
      ]
    }
  ],
  "nodes": [
    {
      "children": [
        1
      ],
      "matrix": [
        1.0,
        0.0,
        0.0,
        0.0,
        0.0,
        2.220446049250313e-16,
        -1.0,
        0.0,
        0.0,
        1.0,
        2.220446049250313e-16,
        0.0,
        0.0,
        0.0,
        0.0,
        1.0
      ],
      "name": "Sketchfab_model"
    },
    {
      "children": [
        2
      ],
      "matrix": [
        1.0,
        0.0,
        0.0,
        0.0,
        0.0,
        0.0,
        1.0,
        0.0,
        0.0,
        -1.0,
        0.0,
        0.0,
        0.0,
        0.0,
        0.0,
        1.0
      ],
      "name": "3a234e09fdcd4ce3a0893f80bd39b825.fbx"
    },
    {
      "children": [
        3
      ],
      "name": "RootNode"
    },
    {
      "children": [
        4
      ],
      "name": "pCylinder23"
    },
    {
      "mesh": 0,
      "name": "pCylinder23_Redd_0"
    }
  ],
  "scene": 0,
  "scenes": [
    {
      "name": "Sketchfab_Scene",
      "nodes": [
        0
      ]
    }
  ]
}
